<?xml version="1.0" encoding="utf-8"?>
<!-- Generator: Adobe Illustrator 25.0.1, SVG Export Plug-In . SVG Version: 6.00 Build 0)  -->
<svg version="1.1" id="レイヤー_1" xmlns="http://www.w3.org/2000/svg" xmlns:xlink="http://www.w3.org/1999/xlink" x="0px"
	 y="0px" viewBox="0 0 347 365" style="enable-background:new 0 0 347 365;" xml:space="preserve">
<style type="text/css">
	.st0{fill:#FFFFFF;}
</style>
<g>
	<g>
		<polygon class="st0" points="140.4,25.1 139.9,19.8 141.7,17.5 147.8,24.4 152.5,24 144,14.6 150.4,6.5 145.8,7 139.4,15.3 
			138.7,7.7 134.9,8 136.6,25.5 		"/>
		<path class="st0" d="M116.9,24.6l7.3-1.3l2.3,3.6l4-0.7L120,10.1l-3.5,0.6l-4.3,18.7l3.9-0.7L116.9,24.6z M119,15l3.3,5.2
			l-4.6,0.8L119,15z"/>
		<polygon class="st0" points="93.2,34.4 94.1,22.3 100.9,32.3 104.1,31.5 105.4,12.8 101.4,13.9 101,26.3 94.1,15.8 90.9,16.6 
			90.2,29.2 83.6,18.6 79.6,19.7 90,35.2 		"/>
		<polygon class="st0" points="19.3,66.9 22.6,64.9 15.3,53 19.8,50.2 18,47.1 5.6,54.7 7.4,57.8 12,55 		"/>
		
			<rect x="71.4" y="22.6" transform="matrix(0.9439 -0.3303 0.3303 0.9439 -6.2349 25.9838)" class="st0" width="3.9" height="17.6"/>
		<polygon class="st0" points="57.6,46.9 55.5,41.9 56.6,39.2 64.5,44 68.8,42.2 58,35.8 61.7,26.1 57.4,27.9 53.8,37.8 50.8,30.7 
			47.3,32.2 54,48.4 		"/>
		<path class="st0" d="M27.1,52c0.6,1.1,1.3,2.1,2.2,2.8c0.9,0.8,1.9,1.3,3,1.7c1.1,0.3,2.3,0.5,3.5,0.4c1.2-0.1,2.4-0.5,3.6-1.1
			c1.2-0.6,2.2-1.4,3-2.4c0.8-0.9,1.4-2,1.7-3.1c0.4-1.1,0.5-2.3,0.4-3.5c-0.1-1.2-0.4-2.3-1-3.5l0,0c-0.6-1.1-1.3-2.1-2.2-2.8
			c-0.9-0.8-1.9-1.3-3-1.7c-1.1-0.3-2.3-0.5-3.5-0.4c-1.2,0.1-2.4,0.5-3.6,1.1c-1.2,0.6-2.2,1.4-3,2.4c-0.8,0.9-1.4,2-1.7,3.1
			c-0.4,1.1-0.5,2.3-0.4,3.5C26.2,49.7,26.5,50.8,27.1,52L27.1,52z M30.2,46c0.2-0.7,0.5-1.3,0.9-1.8c0.4-0.5,1-1,1.7-1.4
			c0.7-0.4,1.4-0.5,2.1-0.6c0.7,0,1.4,0.1,2,0.3c0.7,0.2,1.2,0.6,1.8,1.1c0.5,0.5,1,1,1.3,1.7l0,0c0.3,0.7,0.6,1.4,0.6,2.1
			c0.1,0.7,0,1.4-0.2,2c-0.2,0.7-0.5,1.3-0.9,1.8c-0.4,0.6-1,1-1.7,1.4c-0.7,0.4-1.4,0.6-2.1,0.6c-0.7,0-1.4-0.1-2-0.3
			c-0.7-0.2-1.2-0.6-1.8-1.1c-0.5-0.5-1-1-1.3-1.7l0,0c-0.3-0.7-0.6-1.4-0.6-2.1S30,46.6,30.2,46z"/>
		<path class="st0" d="M305.4,55.9c0.8,0.9,1.8,1.7,3,2.4c1.4,0.8,2.8,1.2,4.2,1.3c1.4,0.1,2.6,0,3.8-0.2l3.6-6.7l-6.7-3.6l-1.6,2.9
			l3.4,1.8l-1.2,2.2c-1.2,0.2-2.4-0.1-3.7-0.8c-0.7-0.4-1.3-0.8-1.7-1.4c-0.4-0.5-0.7-1.2-0.9-1.8c-0.2-0.7-0.2-1.4-0.1-2.1
			c0.1-0.7,0.3-1.4,0.7-2.1l0,0c0.4-0.7,0.8-1.2,1.3-1.7c0.5-0.5,1.1-0.8,1.8-1c0.6-0.2,1.3-0.3,2-0.3c0.7,0,1.3,0.2,1.9,0.5
			c0.4,0.2,0.8,0.5,1.2,0.8c0.3,0.3,0.6,0.6,0.9,0.9c0.2,0.3,0.5,0.6,0.7,1c0.2,0.4,0.4,0.7,0.5,1.1l3.5-1.4
			c-0.2-0.6-0.5-1.1-0.7-1.6c-0.3-0.5-0.6-1-1-1.4c-0.4-0.4-0.8-0.9-1.4-1.3c-0.5-0.4-1.1-0.8-1.8-1.2c-1.2-0.6-2.4-1-3.6-1.1
			c-1.2-0.1-2.4,0-3.5,0.3c-1.1,0.3-2.1,0.9-3.1,1.6c-0.9,0.7-1.7,1.7-2.3,2.8l0,0c-0.6,1.1-1,2.3-1.1,3.5c-0.1,1.2,0,2.3,0.3,3.4
			C304.1,54,304.7,55,305.4,55.9z"/>
		<polygon class="st0" points="279.1,40.4 270.9,37.3 275.8,24.1 272.1,22.8 266.1,39.3 277.9,43.6 		"/>
		<polygon class="st0" points="296.5,48 287.8,44.1 289.3,40.7 296.9,44.1 298.3,41 290.7,37.6 292.2,34.4 300.7,38.2 302.1,35 
			290.1,29.7 282.9,45.7 295.1,51.1 		"/>
		<path class="st0" d="M161.5,19.7l7.4-0.2l1.7,3.9l4-0.1l-7.9-17.5l-3.6,0.1L156,23.8l3.9-0.1L161.5,19.7z M165,10.5l2.5,5.6
			l-4.7,0.1L165,10.5z"/>
		<polygon class="st0" points="261.7,34.1 253.3,31.6 257.4,18.1 253.7,17 248.6,33.8 260.7,37.4 		"/>
		
			<rect x="174.5" y="13" transform="matrix(3.898564e-02 -0.9992 0.9992 3.898564e-02 161.1656 197.4642)" class="st0" width="17.6" height="3.9"/>
		<path class="st0" d="M227.3,26.4c0.6,1,1.5,1.8,2.5,2.5c1,0.7,2.2,1.2,3.5,1.5c1.3,0.3,2.6,0.3,3.8,0.1c1.2-0.2,2.3-0.6,3.3-1.3
			c1-0.6,1.8-1.4,2.5-2.4c0.7-1,1.2-2.1,1.4-3.3l0,0c0.3-1.2,0.3-2.4,0.1-3.6c-0.2-1.2-0.6-2.2-1.3-3.2c-0.6-1-1.5-1.8-2.5-2.5
			c-1-0.7-2.2-1.2-3.5-1.5c-1.3-0.3-2.6-0.3-3.8-0.1c-1.2,0.2-2.3,0.6-3.3,1.3c-1,0.6-1.8,1.4-2.5,2.4c-0.7,1-1.2,2.1-1.4,3.3l0,0
			c-0.3,1.2-0.3,2.4-0.1,3.6C226.3,24.4,226.7,25.4,227.3,26.4z M230.1,20.4L230.1,20.4c0.2-0.8,0.4-1.4,0.8-2
			c0.4-0.6,0.9-1.1,1.4-1.5c0.6-0.4,1.2-0.7,1.9-0.8c0.7-0.1,1.4-0.1,2.2,0c0.8,0.2,1.4,0.5,2,0.9c0.6,0.4,1,0.9,1.4,1.5
			c0.4,0.6,0.6,1.2,0.7,2c0.1,0.7,0.1,1.4-0.1,2.2l0,0c-0.2,0.7-0.4,1.4-0.8,2c-0.4,0.6-0.9,1.1-1.4,1.5c-0.6,0.4-1.2,0.7-1.9,0.8
			c-0.7,0.1-1.4,0.1-2.2,0c-0.8-0.2-1.4-0.5-2-0.9c-0.6-0.4-1-0.9-1.4-1.5c-0.4-0.6-0.6-1.2-0.7-2C229.9,21.9,229.9,21.2,230.1,20.4
			z"/>
		<path class="st0" d="M205.9,23.1c0.7,0.9,1.5,1.7,2.6,2.3c1,0.6,2.2,1,3.5,1.2c0.8,0.1,1.6,0.1,2.3,0.1c0.7,0,1.4-0.2,2-0.4
			c0.6-0.2,1.2-0.4,1.7-0.8c0.5-0.3,1.1-0.7,1.6-1.1l-2.1-2.8c-0.8,0.5-1.5,0.9-2.3,1.2c-0.7,0.3-1.6,0.3-2.6,0.2
			c-0.7-0.1-1.4-0.3-2-0.7c-0.6-0.4-1.1-0.8-1.4-1.4c-0.4-0.6-0.6-1.2-0.8-1.9c-0.2-0.7-0.2-1.4-0.1-2.2l0,0c0.1-0.7,0.3-1.4,0.7-2
			c0.3-0.6,0.8-1.1,1.3-1.6c0.5-0.4,1.1-0.8,1.8-0.9c0.7-0.2,1.4-0.2,2.1-0.1c0.9,0.1,1.6,0.4,2.3,0.8c0.7,0.4,1.3,1,1.9,1.7
			l2.8-2.5c-0.3-0.5-0.7-0.9-1.1-1.3c-0.4-0.4-0.9-0.7-1.4-1.1c-0.5-0.3-1.1-0.6-1.8-0.8c-0.7-0.2-1.4-0.4-2.2-0.5
			c-1.3-0.2-2.6-0.1-3.8,0.2c-1.2,0.3-2.2,0.8-3.1,1.5c-0.9,0.7-1.7,1.6-2.3,2.6c-0.6,1-1,2.2-1.1,3.4l0,0c-0.2,1.2-0.1,2.4,0.2,3.6
			C204.7,21.2,205.2,22.2,205.9,23.1z"/>
		<polygon class="st0" points="334.9,65.5 336.7,62.6 329.8,58.1 331.7,55.1 339.6,60.2 341.4,57.3 330.3,50.2 320.9,65 332.1,72.2 
			334,69.3 325.9,64.2 327.9,61 		"/>
	</g>
	<g>
		<path class="st0" d="M98.9,170.7c3.7-4.4,5.1-10.3,4.3-17.5l-6.3-50.5c-0.3-1.8-0.5-3.1-0.7-3.9c-1.5-6.2-4.6-11.1-9.2-14.8
			c-3.4-2.7-7.3-4.5-11.7-5.2c-1.1-0.2-2,0.7-1.8,1.8l0.7,5.3c0.1,1,0.5,1.3,1,1.5c2.3,0.5,4.4,1.6,6.3,3.2C84.1,93,86,96.2,87,100
			c0.2,0.9,0.4,1.7,0.4,2.2l6.4,51.5c0.5,4.4-0.3,8-2.5,10.8c-1.2,1.5-2.6,2.6-4.3,3.3c-0.6,0.3-1,1-0.9,1.6l0.7,5.9
			c0.1,0.9,1,1.5,1.9,1.3C92.9,175.8,96.3,173.8,98.9,170.7z"/>
		<path class="st0" d="M58.7,293.7c3.6-4.3,5-10.1,4.1-17.4l-0.3-2.2c0-0.4-0.1-0.7-0.4-1c-0.3-0.3-0.7-0.4-1.1-0.4l-7-0.4
			c-0.4,0-0.7,0.1-0.9,0.4c-0.2,0.3-0.3,0.6-0.3,1l0.4,3.5c0.6,4.3-0.1,7.8-2.3,10.5c-2.1,2.7-5.2,4-9.2,4c-3.6,0-6.7-1.1-9.3-3.4
			c-2.6-2.3-4.4-5.2-5.3-8.9c-0.2-0.9-0.4-1.7-0.4-2.2l-6.5-52.7c-0.5-4.3,0.3-7.8,2.4-10.5c2.1-2.7,5.1-4,9.1-4
			c3.6,0,6.7,1.1,9.3,3.2c2.6,2.2,4.3,5.1,5.3,8.8c0.3,1.1,0.4,1.9,0.5,2.5l0.4,3.4c0.2,0.9,0.8,1.4,1.6,1.4l6.9-0.4
			c0.4,0,0.7-0.1,0.9-0.4c0.2-0.3,0.3-0.6,0.2-1l-0.2-2.3c0,0,0-0.1,0-0.1c-0.2-1.6-0.4-2.8-0.6-3.6c-1.5-6.2-4.5-11-9-14.6
			c-4.5-3.6-9.9-5.4-16.1-5.4c-6.9,0-12.1,2.2-15.7,6.5c-3.6,4.3-4.9,10.1-4.1,17.3l6.2,51.2c0.3,1.8,0.5,3.1,0.7,3.9
			c1.5,6.2,4.5,11,9,14.6c4.5,3.6,9.9,5.4,16,5.4C49.8,300.2,55,298,58.7,293.7z"/>
		<path class="st0" d="M273.2,185.4c-0.2-0.2-0.5-0.3-0.7-0.3h-5.1c-0.6,0-0.9,0.3-0.9,1l6.8,52.1c0.5,3.7-0.1,6.7-1.6,9
			c-0.7,1.1-1.6,1.9-2.6,2.5c-0.5,0.3-0.8,0.9-0.7,1.5l0.5,3.7c0.1,1,1.1,1.6,2.1,1.3c2.7-0.8,4.9-2.4,6.6-4.7
			c2.7-3.6,3.6-8.3,2.8-14.2l-6.7-51.3C273.5,185.8,273.4,185.6,273.2,185.4z"/>
		<path class="st0" d="M208,85.2c0.2-0.2,0.2-0.5,0.1-0.8l-0.5-4.7c-0.2-0.8-0.6-1.1-1.3-1.1H174c-0.7,0-1,0.4-1,1.1l9.8,76.7
			c0,0.8,0.4,1.1,1.2,1.1h32.4c0.7,0,1-0.4,1-1.1l-0.6-4.7c0-0.8-0.4-1.1-1.2-1.1h-25.3c-0.3,0-0.5-0.1-0.6-0.5l-3.5-28.1
			c0,0,0,0,0-0.1l-1-7.8c0-0.1,0-0.1,0-0.1l-0.7-5.3l-2.9-22.7c0-0.1,0-0.3,0.1-0.3c0.1-0.1,0.2-0.1,0.4-0.1h25.2
			C207.6,85.5,207.9,85.4,208,85.2z"/>
		<path class="st0" d="M203.5,120.3l-0.7-4.8c0-0.8-0.4-1.1-1.2-1.1h-10.8c-0.7,0-1.2,0.6-1.1,1.3l0.6,4.8c0.1,0.6,0.6,1,1.1,1h11.1
			C203.2,121.5,203.5,121.1,203.5,120.3z"/>
		<path class="st0" d="M235.3,152.2h5.3c0.3,0,0.5-0.1,0.7-0.3c0.2-0.2,0.2-0.5,0.2-0.7L234.4,97c-0.1-0.2,0-0.3,0.1-0.4
			c0.1,0,0.3,0.1,0.4,0.3l26.8,54.5c0.4,0.6,0.8,0.8,1.3,0.8h6c0.6,0,0.9-0.4,0.9-1.1l-9.3-71.6c-0.2-0.7-0.6-1.1-1.2-1.1h-5
			c-0.4,0-0.6,0.1-0.8,0.3c-0.2,0.2-0.2,0.5-0.1,0.7l7.1,54.2c0,0.2-0.1,0.3-0.2,0.4c-0.1,0-0.2-0.1-0.3-0.3L233,79.3
			c-0.2-0.6-0.6-0.8-1.3-0.8h-5.9c-0.6,0-0.9,0.4-0.9,1.1l9.3,71.6C234.3,151.9,234.6,152.2,235.3,152.2z"/>
		<path class="st0" d="M253.9,252.6c2.6,2.2,5.5,3.6,8.8,4.1c1,0.2,1.9-0.7,1.8-1.8l-0.4-3.2c-0.1-0.7-0.6-1.2-1.2-1.3
			c-1.8-0.3-3.5-1.2-4.9-2.6c-2-1.9-3.3-4.3-4.1-7.4c-0.3-1-0.4-1.8-0.5-2.3l-6.7-52.1c0-0.7-0.4-1-1.1-1h-5.1c-0.6,0-0.9,0.3-0.9,1
			l6.6,51.3c0.3,1.6,0.5,2.7,0.6,3.3C248.2,245.7,250.5,249.7,253.9,252.6z"/>
		<path class="st0" d="M324.7,227.2c-0.6-2.3-1.5-4.3-2.8-6.1c-1.3-1.7-2.9-3.4-4.8-4.9c-1.9-1.5-4.6-3.5-8.2-6
			c-4-2.8-6.8-5-8.5-6.7c-1.7-1.6-2.8-3.6-3.3-5.8c-0.2-0.8-0.3-1.4-0.4-1.9c-0.4-3.2,0.1-5.7,1.4-7.5c1.3-1.8,3.2-2.7,5.7-2.7
			c2.3,0,4.3,0.8,6.1,2.4c1.8,1.6,3,3.7,3.7,6.5c0.1,0.4,0.2,1.2,0.4,2.1l0.3,2.4c0.2,0.6,0.5,0.9,1.1,0.9h4.5
			c0.6,0,0.8-0.3,0.8-0.9l-0.3-2.3c-0.2-1.4-0.4-2.4-0.6-3c-1.1-4.2-3.1-7.6-6.1-10.1c-3-2.5-6.5-3.8-10.6-3.8
			c-4.3,0-7.7,1.4-9.9,4.2c-2.3,2.8-3.1,6.7-2.5,11.5c0.2,1.2,0.4,2.1,0.5,2.7c0.6,2.5,1.7,4.8,3.1,6.8c1.4,2,3,3.7,4.8,5.2
			c1.8,1.5,4.2,3.3,7.2,5.3c3.1,2.2,5.3,3.8,6.6,4.8c1.3,1.1,2.5,2.3,3.6,3.6c1.1,1.3,1.8,2.8,2.2,4.5c0.2,0.7,0.3,1.3,0.4,1.8
			c0.4,3.2-0.2,5.7-1.6,7.6c-1.4,1.9-3.4,2.9-5.9,2.9c-2.3,0-4.3-0.8-6.1-2.5c-1.8-1.6-3-3.9-3.7-6.7c-0.2-0.8-0.3-1.4-0.4-1.9
			l-0.2-1.9c0-0.2-0.1-0.5-0.3-0.7c-0.2-0.2-0.5-0.3-0.8-0.3h-4.4c-0.6,0-0.8,0.3-0.8,0.9l0.3,2.1c0.2,1.2,0.4,2.1,0.5,2.7
			c1.1,4.2,3.1,7.6,6.1,10.1c3,2.5,6.5,3.7,10.5,3.7c4.5,0,7.9-1.5,10.4-4.6c2.4-3.1,3.3-7.2,2.7-12.3
			C325,228.6,324.8,227.7,324.7,227.2z"/>
		<path class="st0" d="M94.2,199.2c-0.2-0.8-0.7-1.1-1.4-1.1h-7.4c-0.8,0-1.1,0.4-1.1,1.1l-8.1,89.9c-0.1,0.4,0,0.8,0.2,1
			c0.2,0.2,0.6,0.4,1,0.4h6.2c0.8,0,1.2-0.4,1.2-1.1l1.3-15.1l0.9-12.9c0,0,0-0.1-0.1-0.1l3.6-49.5c0.1-0.2,0.2-0.4,0.3-0.4
			c0.1,0,0.2,0.1,0.2,0.4l15.9,49.5c0.1,0.3,0,0.5-0.3,0.5h-14c-0.8,0-1.5,0.6-1.6,1.5l-0.3,4.2c-0.1,0.9,0.7,1.7,1.6,1.7h16.7
			c0.3,0,0.5,0.2,0.6,0.5l4.2,13.5c0.2,0.8,0.7,1.1,1.5,1.1h6.3c0.8,0,1.1-0.5,0.9-1.4L94.2,199.2z"/>
		<path class="st0" d="M134.5,166.2c0.3,0,0.6-0.1,0.8-0.4c0.2-0.3,0.3-0.5,0.3-0.9l-4.8-37.8c0,0,0,0,0-0.1l-1-8.1c0,0,0,0,0-0.1
			l-4.1-32.2c0.1-0.3,0.2-0.5,0.5-0.5h11c3.2,0,6,1.2,8.5,3.6c2.5,2.4,4.3,5.6,5.3,9.7c0.2,0.8,0.4,1.9,0.6,3.4c0.7,5,0.1,9-1.8,12
			c-1.9,3-4.7,4.5-8.4,4.5h-5.3c-1,0-1.7,0.8-1.6,1.8l0.5,4.1c0.1,0.8,0.8,1.4,1.6,1.4h7.2c5.8,0,10.2-2.2,13.2-6.6
			c3-4.4,4-10.2,3.2-17.3c-0.3-2-0.6-3.5-0.8-4.4c-1.5-6.1-4.3-10.9-8.2-14.5c-4-3.6-8.6-5.4-13.8-5.4h-19.9c-0.7,0-1.1,0.4-1.1,1.3
			L127,165c0,0.8,0.5,1.2,1.3,1.2H134.5z"/>
		<path class="st0" d="M81.9,170c-0.1-0.7-0.7-1.3-1.5-1.4c-3-0.3-5.6-1.4-8-3.4c-2.7-2.3-4.5-5.3-5.4-9.1c-0.3-1.1-0.4-1.9-0.5-2.5
			l-6.4-51.5c-0.6-4.5,0.2-8.2,2.4-11c1.5-2,3.6-3.3,6-3.9c0.8-0.2,1.3-0.9,1.2-1.7l-0.7-5.6c-0.1-0.9-0.9-1.5-1.8-1.4
			c-5.2,0.6-9.3,2.8-12.3,6.5c-3.7,4.5-5.1,10.3-4.3,17.5l6.3,50.5c0.2,1.7,0.4,2.9,0.6,3.6c1.5,6.3,4.6,11.2,9.2,15
			c4.1,3.3,8.8,5.1,14.1,5.5c1,0.1,1.8-0.8,1.7-1.8L81.9,170z"/>
		<path class="st0" d="M203.6,237.4l-1.9-14.7l-3.4-26.2c0.1-0.3,0.2-0.4,0.4-0.4h9.6c2.8,0,5.2,1,7.4,3.1c2.2,2.1,3.7,4.9,4.6,8.5
			c0.2,0.7,0.3,1.6,0.5,2.9c0.6,4.4,0.1,7.9-1.6,10.5c-1.6,2.6-4.1,3.9-7.4,3.9H208c-1,0-1.7,0.8-1.6,1.8l0.4,3.2
			c0.1,0.8,0.8,1.4,1.6,1.4h5.6c5.1,0,8.9-1.9,11.5-5.7c2.6-3.8,3.5-8.9,2.7-15.1c-0.3-1.7-0.5-3-0.7-3.8c-1.3-5.3-3.7-9.5-7.2-12.7
			c-3.5-3.1-7.5-4.7-12.1-4.7h-17.4c-0.7,0-1,0.4-0.9,1.1l9.5,74.3c0,0.7,0.4,1.1,1.1,1.1h5.5c0.3,0,0.5-0.1,0.7-0.3
			c0.2-0.2,0.2-0.5,0.2-0.8L203.6,237.4L203.6,237.4z"/>
		<path class="st0" d="M174.5,270.9h5.7c0.4,0,0.7-0.1,0.8-0.4c0.2-0.2,0.2-0.5,0.1-0.8l-10-74.8c0-0.3-0.1-0.6-0.4-0.8
			c-0.3-0.2-0.6-0.4-1-0.4H164c-0.7,0-1.1,0.3-1.3,0.8l-9.4,27.1c0,0.2-0.1,0.2-0.3,0.2c-0.2,0-0.3-0.1-0.3-0.2l-16.4-27.1
			c-0.2-0.5-0.7-0.8-1.4-0.8h-6c-0.7,0-1,0.4-1,1.2l10.1,79.7c0,0.8,0.4,1.2,1.2,1.2h5.9c0.3,0,0.6-0.1,0.7-0.4
			c0.2-0.2,0.3-0.5,0.3-0.8l-8-62.7c0-0.2,0.1-0.4,0.2-0.4c0.1,0,0.2,0.1,0.4,0.2l15,25.2c0.2,0.5,0.7,0.8,1.4,0.8
			c0.5,0,0.9-0.3,1-0.8l8.7-25.3c0.1-0.2,0.2-0.2,0.4-0.2c0.1,0,0.2,0.1,0.1,0.4l7.9,58C173.3,270.6,173.8,270.9,174.5,270.9z"/>
	</g>
	<g>
		<path class="st0" d="M303.5,287.7L303.5,287.7c0-5.1-3.8-8.5-9.3-8.5c-5,0-7.7,2.1-10.4,5.9l3.6,2.8c2.1-2.8,3.9-4.2,6.5-4.2
			s4.6,1.7,4.6,4.4c0,2.5-1.5,4.3-5.3,7.6l-9.7,8.3v3.9h20.4v-4.4h-13.4l5.8-4.8C301.1,294.5,303.5,292.2,303.5,287.7z"/>
		<path class="st0" d="M279.8,293.7L279.8,293.7c0-8-6.1-14.6-14.7-14.6c-8.7,0-14.8,6.7-14.8,14.6v0.1c0,8,6.1,14.5,14.7,14.5
			C273.6,308.3,279.8,301.7,279.8,293.7z M274.5,293.8c0,5.5-3.9,9.9-9.5,9.9c-5.6,0-9.6-4.5-9.6-10v-0.1c0-5.5,3.9-9.9,9.5-9.9
			C270.5,283.7,274.5,288.2,274.5,293.8L274.5,293.8z"/>
		<path class="st0" d="M237.4,298.6c5-4.1,7.4-6.5,7.4-10.9v-0.1c0-5.1-3.8-8.4-9.3-8.4c-5,0-7.7,2.1-10.4,5.9l3.6,2.8
			c2.1-2.8,3.9-4.2,6.5-4.2c2.6,0,4.6,1.7,4.6,4.4c0,2.5-1.5,4.3-5.3,7.6l-9.7,8.3v3.9h20.4v-4.4h-13.4L237.4,298.6z"/>
		<polygon class="st0" points="319.8,307.8 319.8,279.4 316.4,279.4 308.7,281.8 309.8,285.8 314.9,284.4 314.9,307.8 		"/>
	</g>
	<g>
		<g>
			<path class="st0" d="M19.8,347v-1.6c0-2,0-2.3,0-3.6c0.2-0.1,0.4-0.3,0.4-0.5c0-0.2-0.2-0.3-0.5-0.3l-2.7-0.2l0,0.1
				c0.1,0.6,0.1,1.9,0.1,4.5v8.6c0,1.9-0.1,3.3-0.2,4.4l0,0.1h2.8l0-0.1c0-1.1,0-2.4,0-4.4v-4.4c2,0.8,3.6,1.7,5.2,2.9l0.1,0.1
				l1.4-2.1l0.1-0.1l-0.1-0.1C24.3,348.9,22.5,348,19.8,347z"/>
			<path class="st0" d="M49.8,348.5c-0.7,0.2-1.4,0.3-2.5,0.5l-4,0.7l-0.5-2.8l2.5-0.4l0.4-0.1c0.6-0.1,1.4-0.2,2.6-0.4l0.1,0
				l-0.4-2.5l-0.1,0c-0.8,0.2-2.5,0.5-2.9,0.5l-2.5,0.4c-0.1-0.5-0.2-1.1-0.2-1.7c-0.1-0.5-0.2-1-0.2-1.5c0.2-0.2,0.3-0.3,0.3-0.5
				c0-0.2-0.2-0.3-0.5-0.3l-2.6,0.1l0,0.1c0.1,0.3,0.7,3.4,0.7,4.1l-2.5,0.4c-1.6,0.3-2.3,0.4-2.9,0.4l-0.2,0l0.4,2.4l0.3-0.1
				c0.2,0,0.3-0.1,0.7-0.1c0.9-0.2,1.4-0.2,1.7-0.3l2.8-0.5l0.5,2.8l-3.6,0.6c-0.9,0.2-1.8,0.3-3.4,0.5l-0.1,0l0.4,2.4l0.8-0.1
				c1-0.2,1.3-0.2,2.7-0.5l3.6-0.6l0.2,1.5c0.2,1.1,0.5,3.3,0.7,5.1l0,0.1l2.7-0.5l0-0.1c-0.2-1-0.3-1.5-0.6-3.3l-0.5-3.3l3.2-0.5
				c0.8-0.1,2.7-0.4,3.4-0.5l0.1,0l-0.4-2.5L49.8,348.5z"/>
			<path class="st0" d="M69.2,342.1l-0.3,0.4H59c-0.6,0-1.1,0-1.5,0l-0.1,0l0,0.1c0,0.4,0.1,1.2,0.1,1.9v3.8c0,1.1,0,1.8-0.1,2.3
				l0,0.1H60l0-0.1c0-0.5-0.1-1.2-0.1-2.3v-3.5h8.4c-0.6,3.8-1,5.1-2.4,7c-1.4,2-2.9,3.2-5.9,4.8l-0.1,0.1l0.1,0.1
				c0.7,0.7,1,0.9,1.6,2l0.1,0.1l0.1-0.1c3.1-1.8,5-3.4,6.5-5.7c1.5-2.3,2-3.9,2.7-8.6c0.3-0.1,0.5-0.2,0.5-0.5
				c0-0.2-0.1-0.3-0.3-0.4L69.2,342.1z"/>
			<path class="st0" d="M91.5,345l-0.4,0.5l-4.5,0.2c0-0.5,0.2-2.3,0.2-3.2l0-0.1c0.3-0.1,0.4-0.3,0.4-0.5c0-0.1,0-0.4-0.5-0.4
				l-2.4-0.2l-0.1,0v0.6c0,1.2-0.1,2.7-0.2,4c-1.1,0-2.4,0-5.3,0h-0.8l0.1,2.5l0.1,0c1.7-0.1,2.2-0.1,4.5-0.2l1.1,0
				c-0.1,1-0.6,2.3-1.2,3.4c-1,1.8-2.5,3.3-4.9,4.9l-0.1,0.1l0.1,0.1c0.5,0.4,1,1.1,1.4,1.8l0.1,0.1l0.1-0.1
				c2.7-1.9,4.3-3.5,5.4-5.5c0.8-1.4,1.5-3.3,1.7-4.9l4.1-0.2c-0.2,2.8-0.6,5-1.1,6.3c-0.4,1-0.8,1.3-2,1.3c-0.5,0-1.1-0.1-2-0.2
				l-0.2,0l0.1,0.2c0.2,0.7,0.4,1.7,0.5,2.4l0,0.1l0.1,0c0.5,0,0.7,0,1.1,0c0.5,0,0.5,0,0.7,0c2.1,0,3-0.4,3.6-1.9
				c0.8-1.6,1.3-4.4,1.6-8.6c0.3-0.1,0.5-0.2,0.5-0.5c0-0.2-0.1-0.3-0.2-0.5L91.5,345z"/>
			<path class="st0" d="M113.3,341.6l-2.1-0.9l-0.1,0l-0.1,0.1c-2.5,4.5-5.9,7.8-11.7,11.4l-0.1,0.1l0.1,0.1
				c0.7,0.6,0.7,0.7,1.4,1.8l0.1,0.1l0.1-0.1c2.8-1.8,4-2.8,6.4-5c0,1.1,0,1.7,0,2.3v3.7c0,1.8,0,2.9-0.1,3.8l0,0.1h2.8l0-0.1
				c0-1.1,0-2.1,0-3.8v-4.3c0-0.8,0-1.8,0-3c0.3-0.2,0.4-0.3,0.4-0.5c0-0.3-0.2-0.4-0.4-0.4l-0.3-0.1c1-1,2.4-2.8,3.5-4.5
				c0.2-0.1,0.4-0.2,0.4-0.4C113.6,341.8,113.5,341.7,113.3,341.6z"/>
		</g>
		<g>
			<path class="st0" d="M308.2,343.7c0,1.3,1,2.3,2.3,2.3c1.3,0,2.3-1,2.3-2.3c0-1.3-1-2.3-2.3-2.3
				C309.3,341.4,308.2,342.4,308.2,343.7z M311.6,343.7c0,0.6-0.5,1-1,1c-0.6,0-1-0.5-1-1c0-0.6,0.5-1,1-1
				C311.1,342.7,311.6,343.1,311.6,343.7z"/>
			<path class="st0" d="M201.9,339.3c-1.3,0-2.3,1-2.3,2.3c0,1.3,1,2.3,2.3,2.3c1.3,0,2.3-1,2.3-2.3
				C204.2,340.4,203.2,339.3,201.9,339.3z M203,341.6c0,0.6-0.5,1-1,1c-0.6,0-1-0.4-1-1c0-0.6,0.5-1,1-1
				C202.5,340.6,203,341.1,203,341.6z"/>
			<path class="st0" d="M223.3,344.1l-0.1-0.2l-0.1,0.1c-2.2,3-3.8,4.7-6.7,6.9c-2.5,1.9-4.3,2.9-7.5,4.3l-0.1,0.1l1.5,2.2
				c0.1,0.2,0.3,0.3,0.5,0.3c0.2,0,0.3-0.2,0.4-0.5c3-1.5,4.6-2.5,6.7-4.1c2.5-1.9,4.2-3.5,7-6.9l0.1-0.1l-0.1-0.1
				C224.1,345.3,223.7,344.8,223.3,344.1z"/>
			<path class="st0" d="M278.3,348.6L278.3,348.6l1.9-1.9l0.1-0.1l-0.1-0.1c-1.5-1.6-2.3-2.2-4.6-3.4l-0.1,0l-1.6,2l0.1,0.1
				C275.7,346,276.8,346.9,278.3,348.6z"/>
			<path class="st0" d="M289.2,344.1l-0.1-0.2l-0.1,0.1c-2.2,3-3.8,4.7-6.7,6.9c-2.5,1.9-4.3,2.9-7.5,4.3l-0.1,0.1l1.5,2.2
				c0.1,0.2,0.3,0.3,0.5,0.3c0.2,0,0.3-0.2,0.4-0.5c3-1.5,4.6-2.5,6.7-4.1c2.5-1.9,4.2-3.5,7-6.9l0.1-0.1l-0.1-0.1
				C289.9,345.3,289.6,344.8,289.2,344.1z"/>
			<path class="st0" d="M302.4,346.9l-2.3-1.2l0,0.1c-1.3,3-3.4,5.3-6.8,7.3l-0.1,0.1l0.1,0.1c0.8,0.8,1.1,1.2,1.4,2l0.1,0.1
				l0.1-0.1c1.6-1,2.5-1.8,3.9-3.1c1.3-1.3,1.9-2.1,3.4-4.6c0.4-0.1,0.5-0.3,0.5-0.4C302.7,347.1,302.6,346.9,302.4,346.9z"/>
			<path class="st0" d="M306.8,345L306.8,345l-1.9,1.6l0.1,0.1c1.9,1.6,2.8,2.6,4,4.1c1.2,1.5,1.8,2.5,2.6,4.2l0.1,0.1l2.4-1.6
				l-0.1-0.1C312.1,350,310.1,347.7,306.8,345z"/>
			<path class="st0" d="M266.8,347.7l-1.7-1.2l-0.1-0.1l-0.3,0.4l-5.7,1.4l-0.2-0.7c-0.4-1.8-0.5-2.1-0.6-2.5
				c0.2-0.2,0.2-0.3,0.2-0.5c0-0.2-0.1-0.4-0.5-0.4l-2.3,0.2l-0.1,0l0.1,0.2c0.2,0.5,0.3,0.8,1.2,4.2c-2.4,0.5-3,0.7-4.5,0.9l-0.1,0
				l0.7,2.2l0.1,0c0.1,0,0.2,0,0.3-0.1c0.1,0,0.1,0,0.2,0c1.5-0.4,2.9-0.7,3.4-0.9l0.5-0.1l0.8,3.1c0.5,2,1,4.6,1.1,5.1l0,0.1
				l2.4-0.6l0-0.1c0-0.1-0.2-0.6-0.2-0.6c-0.3-1.1-0.4-1.5-1.1-4.3l-0.9-3.3l4.5-1.1c-0.7,1.2-1.3,1.8-2.6,2.8l-0.1,0.1l0.1,0.1
				c0.9,0.8,0.9,0.8,1.5,1.5l0.1,0.1l0.1-0.1c1.9-1.8,2.6-2.8,3.6-5c0.4-0.2,0.5-0.2,0.5-0.5C267.1,348,267,347.9,266.8,347.7z"/>
			<path class="st0" d="M331.4,352.9c-1.1-1.2-1.4-1.4-3.3-2.8c-0.1-0.1-0.1-0.1-0.2-0.2c1.1-1.4,1.2-1.5,3-4.5l0.2-0.1
				c0.1,0,0.3-0.1,0.3-0.3c0-0.2-0.1-0.2-0.3-0.4l-1.7-1.6l-0.4,0.4l-3.9,0.2c-1.7,0.1-4.8,0.2-6.5,0.2h-0.1l0.2,2.6l0.1,0
				c1-0.1,3.3-0.3,4.4-0.3l0.2,0c1-0.1,1.7-0.1,1.9-0.1l2.5-0.2c0,0-0.1,0.1-0.1,0.1l-0.1,0.1c-0.6,1-1.3,1.9-2.3,3
				c-2.5,2.8-4.6,4.2-8.8,6.1l-0.1,0.1l0.1,0.1c0.6,0.7,0.7,1,1.2,2l0,0.1l0.1,0c3.7-1.6,6.1-3.3,8.4-5.7c0.2,0.2,0.5,0.4,1.7,1.5
				c1.1,1,2,2.1,3.4,4.1l0.1,0.1l2-1.7l0.1-0.1l-0.1-0.1C332.8,354.4,332.3,353.8,331.4,352.9z"/>
			<path class="st0" d="M157.8,345.4c-1,0-1.7,0.1-2.8,0.1l-2.1,0v-1.3c0-0.9,0-1.2,0-1.7l0-0.4c0.3-0.2,0.4-0.3,0.4-0.5
				c0-0.1-0.1-0.3-0.4-0.3l-2.5-0.2l-0.1,0l0,0.1c0.1,0.5,0.1,1,0.1,4.2l-5.2,0.1h-3.5l0,2.5l0.1,0c1.3-0.1,2.3-0.1,3.2-0.1l4.1-0.1
				c-0.6,0.8-1.6,1.9-2.6,2.8c-1.6,1.4-3.2,2.5-5.8,3.9l-0.1,0.1l0.1,0.1c0.5,0.5,0.7,0.9,1.1,1.9l0,0.1l0.1-0.1
				c3.9-2.2,6.7-4.5,8.5-6.9v5.3c0,0.7-0.1,0.7-0.6,0.7c-0.6,0-1,0-2-0.1l-0.2,0l0,0.2c0.3,1,0.3,1.5,0.4,2.4l0,0.1l0.1,0
				c0.3,0,0.5,0,0.8,0c0.4,0,0.7,0,1,0c1.5,0,2.1-0.1,2.6-0.6c0.4-0.3,0.5-0.8,0.5-1.6c0-0.2,0-0.4,0-1.2c0-0.9,0-2.4,0-3.1v-4.1
				l2.1,0h3.5l0-2.5L157.8,345.4z"/>
			<path class="st0" d="M134.4,344.8c-1.7-1.2-3.7-1.8-6-1.8c-2,0-3.8,0.5-5.4,1.6c-2.5,1.6-4.1,4.3-4.1,7.1c0,1.2,0.3,2.4,0.9,3.3
				c0.6,1.1,1.6,1.6,2.8,1.6c1.8,0,3.3-1.3,4.6-4.2c0.9-1.9,1.2-3,2-6.2c0.2-0.1,0.3-0.3,0.3-0.4c0-0.1-0.1-0.3-0.3-0.4l-0.3-0.2
				c0.7,0,1.6,0.2,2.4,0.5c2.3,0.9,3.5,2.7,3.5,4.8c0,1.8-0.9,3.3-2.6,4.2c-1.1,0.7-2,1-4.3,1.5l-0.2,0l0.1,0.1
				c0.6,0.7,0.7,1,1.1,2.1l0,0.1l0.1,0c1.5-0.4,3.2-1.1,4-1.5c2.8-1.5,4.1-3.7,4.1-6.6C137.2,348.1,136.3,346.2,134.4,344.8z
				 M126.7,345.2c-0.2,1.8-0.9,4.1-2.1,6.6c-0.7,1.6-1.3,2.2-2,2.2c-0.7,0-1.2-0.9-1.2-2.4c0-1.7,0.8-3.4,2.1-4.8h0
				C124.5,346,125.3,345.6,126.7,345.2z"/>
			<path class="st0" d="M245.5,348.5c-0.7,0.2-1.4,0.3-2.5,0.5l-4,0.7l-0.5-2.8l2.5-0.4l0.4-0.1c0.6-0.1,1.4-0.2,2.6-0.4l0.1,0
				l-0.4-2.5l-0.1,0c-0.8,0.2-2.5,0.5-2.9,0.5l-2.5,0.4c-0.1-0.5-0.2-1.1-0.2-1.7c-0.1-0.5-0.2-1-0.2-1.5c0.2-0.2,0.3-0.3,0.3-0.5
				c0-0.2-0.2-0.3-0.5-0.3l-2.6,0.1l0,0.1c0.1,0.3,0.7,3.4,0.7,4.1l-2.5,0.4c-1.6,0.3-2.3,0.4-2.9,0.4l-0.2,0l0.4,2.4l0.3-0.1
				c0.2,0,0.3-0.1,0.7-0.1c0.9-0.2,1.4-0.2,1.7-0.3l2.8-0.5l0.5,2.8l-3.6,0.6c-1,0.2-1.8,0.3-3.4,0.5l-0.1,0l0.4,2.4l0.8-0.1
				c1-0.2,1.3-0.2,2.7-0.5l3.6-0.6l0.2,1.5c0.2,1.1,0.5,3.3,0.7,5.1l0,0.1l2.7-0.5l0-0.1c-0.2-1-0.3-1.5-0.6-3.3l-0.5-3.3l3.2-0.5
				c0.8-0.1,2.7-0.4,3.4-0.5l0.1,0l-0.4-2.5L245.5,348.5z"/>
			<path class="st0" d="M212.4,348.6L212.4,348.6l1.9-1.9l0.1-0.1l-0.1-0.1c-1.5-1.6-2.3-2.2-4.6-3.4l-0.1,0l-1.6,2l0.1,0.1
				C209.8,346,210.9,346.9,212.4,348.6z"/>
			<path class="st0" d="M176.4,348.4h-9c-1.3,0-3.4-0.1-3.8-0.1l-0.1,0v2.5l0.1,0c1,0,2.8-0.1,3.8-0.1h9c1,0,2.4,0,3.5,0.1l0.5,0
				v-2.5l-0.1,0C179.2,348.4,177.5,348.4,176.4,348.4z"/>
			<path class="st0" d="M199.1,343l-0.4,0.5l-6.4,0.4c-0.4,0-1,0.1-1.7,0.1c-0.7,0-1.3,0-1.8,0.1c-0.9,0-1.4,0.1-1.8,0.1h-0.7
				l0.3,2.6l0.1,0c0.6-0.1,1.5-0.1,2.7-0.2c1-0.1,2.1-0.1,3.4-0.2l5.2-0.4c-0.4,1.6-1.5,3.7-2.7,5c-1.9,2.3-4.1,3.8-8.4,5.6
				l-0.2,0.1l0.2,0.1c0.7,0.5,1.1,1,1.5,2l0,0.1l0.1,0c4.2-1.9,6.6-3.6,8.6-6.1c1.6-1.8,2.7-4.1,3.6-7.1c0.3-0.1,0.6-0.3,0.6-0.5
				c0-0.1-0.1-0.3-0.3-0.4L199.1,343z"/>
		</g>
	</g>
</g>
</svg>
